<svg fill="none" height="60" viewBox="0 0 154 60" width="154" xmlns="http://www.w3.org/2000/svg"><path clip-rule="evenodd" d="m127.867 60v-28.8095h-16.818v28.8095zm0-31.1905h-16.818v-28.8095h16.818zm21.622 2.4023c2.211 3.147 3.594 6.9313 3.594 10.7795 0 9.9073-8.1 18.0087-18.009 18.0087h-4.804v-28.8095zm-19.219-2.4023 17.072.0425c-1.531-1.4246-3.615-2.8066-5.635-3.5503 4.168-2.4237 6.868-6.9314 6.868-11.8007 0-7.37729-6.122-13.501-13.501-13.501h-4.804zm-49.242 31.1905h-16.7756v-28.8095h16.7756zm0-31.1905h-16.7756v-28.8095h16.7756zm2.4023 31.1905v-28.8095l19.2207.0213c2.21 3.147 3.593 6.9313 3.593 10.7795 0 9.9073-8.1009 18.0087-18.0081 18.0087zm0-31.1905v-28.8095h4.8056c7.3772 0 13.5211 6.1229 13.5211 13.501 0 4.8693-2.7212 9.3762-6.8893 11.8007 2.0203.7437 4.1043 2.1257 5.6353 3.5503zm-54.5996 0h-17.9023l10.0783-28.80868221h7.824zm20.2834 0-10.0987-28.8095h-7.7815v28.8086h17.8802zm10.9284 31.1905h-15.0106l-4.1886-11.9913h-9.6102v-16.8182h18.732zm-60.0425 0h15.0115l4.2098-11.9913h9.6103v-16.8182h-18.732z" fill="#cc2229" fill-rule="evenodd"/></svg>