<svg fill="none" height="70" viewBox="0 0 211 70" width="211" xmlns="http://www.w3.org/2000/svg"><path d="m210.707 16.6655c-2.867-16.461556-52.328-21.59869-110.479-11.47459-24.421 4.254-46.4723 10.52839-63.6447 17.58719 2.6379.0578 4.5942.6627 5.783 1.8482.9293.9304 1.3987 2.2074 1.3987 3.7983v1.6329h-5.7021v-1.4418c0-1.2013-.7204-1.9459-1.9962-1.9459-1.0722 0-1.7327.4841-1.9459 1.4376-.0714.377-.0636.7646.0231 1.1384.6101 2.494 9.0772 4.0429 9.9981 8.6455.1208.5923.2846 1.8598.0263 3.6733-.5283 3.7121-3.7899 5.1445-7.942 5.1445-5.7956 0-8.1499-2.745-8.1499-6.5296l.0042-1.7904h6.1127l.0031 2.2304c0 1.2538.9115 1.9459 2.1527 1.9459 1.1762 0 1.8629-.4736 2.1003-1.4418.1102-.4453.1585-1.1016-.042-1.6036-1.131-2.8374-9.0373-4.1626-10.0107-8.7505-.2174-1.0312-.2353-1.9091-.0546-3.0191.0926-.5502.263-1.0845.5061-1.5867-19.04792 8.9081-30.19064 18.7098-28.718382 27.1726 2.869952 16.4636 52.330082 21.5955 110.480182 11.4714 25.561-4.4493 48.542-11.1101 66.032-18.5743-.253.0126-.499.0399-.762.0399-3.98 0-7.533-1.4912-7.902-5.5593-.065-.7403-.076-1.0501-.079-1.4722l.003-9.3523c0-.4033.047-1.111.092-1.4765.471-3.9316 3.58-5.5529 7.888-5.5529 3.335 0 7.423.9566 7.872 5.5561.06.5775.054 1.194.053 1.3966v.8832h-5.759v-1.3179c0-.0284-.009-.5209-.072-.8286-.094-.4694-.494-1.5573-2.135-1.5573-1.62 0-2.04 1.09-2.145 1.5584-.06.2573-.088.6269-.088 1.0364v10.1641c-.005.3528.012.629.048.8316.029.1597.319 1.5605 2.205 1.5605 1.873 0 2.163-1.4008 2.189-1.5605.049-.2751.055-.6027.053-.8316v-3.1493h-2.266v-3.3919h8.014v6.034c-.002.4105-.009.714-.078 1.4701-.097 1.0669-.433 1.97-.96 2.7418 18.548-8.8072 29.348-18.4504 27.894-26.7903zm-150.7829 29.1751-2.9172-19.8218h-.105l-2.9918 19.8218h-6.1484l4.1354-22.3851h10.0316l4.1102 22.3851zm29.5732 0-.1355-19.4385h-.0987l-3.6176 19.4385h-5.7704l-3.5998-19.4385h-.1029l-.1312 19.4385h-5.7179l.4957-22.3851h9.1968l2.6778 16.6284h.1313l2.6851-16.6284h9.1927l.4935 22.3851zm26.9257-4.338c-.615 4.3359-4.863 5.0941-7.865 5.0941-4.985 0-8.068-2.1306-8.068-6.4666l.003-1.7683h6.039l.004 2.2031c0 1.1961.844 1.928 2.146 1.928 1.161 0 1.842-.4663 2.078-1.4239.109-.4463.154-1.0974-.039-1.5889-1.113-2.7838-8.957-4.1479-9.911-8.6644-.218-1.0239-.234-1.8934-.055-2.9918.664-4.0944 4.594-4.9449 7.757-4.9449 2.829 0 4.888.6174 6.123 1.8523.921.922 1.387 2.1874 1.387 3.7615v1.6151h-5.648v-1.425c0-1.2202-.757-1.9259-1.974-1.9259-1.079 0-1.732.4799-1.947 1.424-.069.373-.06.7564.028 1.1257.605 2.4824 8.997 3.9998 9.916 8.5594.119.5818.281 1.8304.026 3.6365zm20.916-2.034c.009.42-.032 1.2591-.055 1.4743-.345 3.688-2.983 5.5625-7.821 5.5625-4.856 0-7.496-1.8745-7.839-5.5625-.038-.489-.057-.9795-.055-1.4701v-16.0226h5.777v16.5277c-.006.3696.013.6426.05.8327.071.3676.437 1.5605 2.067 1.5605 1.626 0 1.991-1.194 2.068-1.5563.033-.1953.053-.482.053-.838v-16.5266h5.755zm24.893 6.1442h-8.04l-5.396-17.7311h-.09l.299 17.7311h-5.604v-22.1573h8.377l4.988 17.0327h.117l-.295-17.0327h5.644z" fill="#2d4f9e"/></svg>